# xmcd
#
# Track frame offsets: 
#        150
#        20379
#        41024
#        59802
#        72963
#        93070
#        116684
#        127888
#        147022
#        171927
#        183201
#        210144
#        223060
#
# Disc length: 3204 seconds
#
# Revision: 1
# Processed by: cddbd v1.5.2PL0 Copyright (c) Steve Scherf et al.
# Submitted via: ExactAudioCopyFreeDBPlugin 1.0
#
DISCID=b40c820d
DTITLE=John Mayer - Battle Studies
DYEAR=2009
DGENRE=Blues
TTITLE0=Heartbreak Warfare
TTITLE1=All We Ever Do Is Say Goodbye
TTITLE2=Half Of My Heart
TTITLE3=Who Says
TTITLE4=Perfectly Lonely
TTITLE5=Assassin
TTITLE6=Crossroads
TTITLE7=War Of My Life
TTITLE8=Edge Of Desire
TTITLE9=Do You Know Me
TTITLE10=Friends, Lovers Or Nothing
TTITLE11=I'm On Fire
TTITLE12=Say
EXTD=
EXTT0=
EXTT1=
EXTT2=
EXTT3=
EXTT4=
EXTT5=
EXTT6=
EXTT7=
EXTT8=
EXTT9=
EXTT10=
EXTT11=
EXTT12=
PLAYORDER=
